<?xml version="1.0" encoding="utf-8"?>
<!-- Generator: Adobe Illustrator 25.4.1, SVG Export Plug-In . SVG Version: 6.00 Build 0)  -->
<svg version="1.1" id="Layer_1" xmlns="http://www.w3.org/2000/svg" xmlns:xlink="http://www.w3.org/1999/xlink" x="0px" y="0px"
	 viewBox="0 0 110 110" style="enable-background:new 0 0 110 110;" xml:space="preserve">
<g>
	<path d="M55,29.3c-14.2,0-25.7,11.5-25.7,25.7S40.8,80.6,55,80.6s25.6-11.5,25.7-25.7C80.7,40.8,69.2,29.3,55,29.3z"/>
	<path d="M25.5,98.8c0.5-0.1,0.5-0.1,0.5-0.1c5.4-1.5,11-2.4,12.5-1.8c1.5,0.7,5.1,4.8,7.8,9.5c0,0,0,0,0.5,0.8
		c1.2,1.9,1.2,1.9,1.2,1.9c2.4,0.5,5.9,1,7.9,1c2,0,5.5-0.7,7.9-1.3c0,0,0,0,1.1-1.9c0.3-0.4,0.3-0.4,0.3-0.4
		c2.6-4.8,6-9.5,7.6-10.1c1.5-0.7,7-0.1,12.2,1.2c0,0,0,0,1,0.2c2.2,0.4,2.2,0.4,2.2,0.4c2.1-1.3,4.9-3.5,6.3-4.8
		c1.3-1.4,3.4-4.3,4.6-6.5c0,0,0,0-0.5-2.2C98.7,84,98.7,84,98.7,84c-1.5-5.4-2.4-11-1.8-12.5s4.8-5.1,9.5-7.8c0,0,0,0,0.8-0.5
		c1.9-1.2,1.9-1.2,1.9-1.2c0.5-2.4,1-5.9,1-7.9c0-2-0.7-5.5-1.3-7.9c0,0,0,0-1.9-1.1c-0.4-0.3-0.4-0.3-0.4-0.3
		c-4.8-2.6-9.5-6-10.1-7.6c-0.7-1.5-0.1-7,1.2-12.2c0,0,0,0,0.2-1c0.4-2.2,0.4-2.2,0.4-2.2c-1.3-2.1-3.5-4.9-4.8-6.3
		S89,12,86.8,10.8c0,0,0,0-2.2,0.5C84,11.4,84,11.4,84,11.4c-5.4,1.5-11,2.4-12.5,1.8s-5.1-4.8-7.8-9.5c0,0,0,0-0.5-0.8
		c-1.2-1.9-1.2-1.9-1.2-1.9c-2.5-0.7-6-1.1-8-1.1S48.4,0.7,46,1.3c0,0,0,0-1.1,1.9c-0.3,0.4-0.3,0.4-0.3,0.4
		c-2.6,4.8-6,9.5-7.7,10.1c-1.5,0.7-7,0.1-12.2-1.2c0,0,0,0-1-0.2c-2.2-0.4-2.2-0.4-2.2-0.4c-2.1,1.3-4.9,3.5-6.3,4.8
		s-3.4,4.3-4.6,6.5c0,0,0,0,0.5,2.2c0.1,0.5,0.1,0.5,0.1,0.5c1.5,5.4,2.4,11,1.8,12.5s-4.8,5.1-9.5,7.8c0,0,0,0-0.8,0.5
		c-1.9,1.2-1.9,1.2-1.9,1.2c-0.5,2.5-1,6-0.9,8c0,2,0.7,5.5,1.3,7.9c0,0,0,0,1.9,1.1c0.4,0.3,0.4,0.3,0.4,0.3
		c4.8,2.6,9.5,6,10.1,7.6c0.7,1.5,0.2,7-1.1,12.2c0,0,0,0-0.2,1C12,88.4,12,88.4,12,88.4c1.3,2.1,3.5,4.9,4.8,6.3
		c1.3,1.3,4.3,3.4,6.5,4.6C23.3,99.2,23.3,99.2,25.5,98.8z M21,90.3c-1.4-1.3-2.6-2.5-2.7-2.7c0,0,0,0,0-0.1
		c0.2-1.5,0.2-1.5,0.2-1.5c1.3-5.1,2.5-9.6,2.6-9.8s-0.8-2.7-2-5.5c-1.2-2.7-2.4-5.1-2.7-5.2c-0.3-0.1-2.5-1.3-4.9-2.5
		s-5.4-3-5.5-3.1C5.8,59.7,5.8,58,5.7,56c0-2-0.1-3.6,0-3.7c0-0.1,1.8-1.2,3.8-2.5c2.1-1.3,6-3.5,6.4-3.6c0.3-0.1,1.4-2.5,2.5-5.3
		s1.9-5.3,1.8-5.6c-0.1-0.3-1.5-4.8-3.1-10c0,0,0,0-0.3-1.2c0-0.1,0-0.1,0-0.1c0.1-0.1,1.2-1.4,2.6-2.9c1.4-1.4,2.5-2.6,2.7-2.7
		c0,0,0,0,0.1,0c1.5,0.2,1.5,0.2,1.5,0.2c5.1,1.3,9.6,2.5,9.8,2.6c0.3,0.1,2.7-0.8,5.5-2c2.7-1.2,5.1-2.4,5.2-2.7
		c0.1-0.3,1.2-2.5,2.5-4.9c1.3-2.4,3-5.4,3.1-5.5c0.1-0.1,1.9-0.1,3.8-0.2s3.7,0,3.8,0c0,0,0,0,0.1,0.1c0.8,1.3,0.8,1.3,0.8,1.3
		c2.6,4.5,4.9,8.5,5.1,8.8c0.1,0.3,2.5,1.4,5.3,2.5c2.7,1.1,5.3,1.9,5.6,1.8c0.3-0.1,4.8-1.5,10-3.1c0,0,0,0,1.2-0.3
		c0.1,0,0.1,0,0.1,0c0.1,0.1,1.4,1.2,2.9,2.6c1.4,1.3,2.6,2.5,2.7,2.7c0,0,0,0,0,0.1c-0.1,1.8-0.1,1.8-0.1,1.8
		c-1.3,5.1-2.5,9.6-2.6,9.8c-0.1,0.2,0.8,2.7,2,5.5c1.2,2.7,2.4,5.1,2.7,5.2c0.3,0.1,2.5,1.3,4.9,2.5c2.4,1.2,5.4,3,5.5,3.1
		c0.1,0.1,0.1,1.9,0.2,3.8c0,2,0.1,3.6,0,3.7c-0.1,0.1-1.8,1.2-3.8,2.5c-2,1.2-6,3.5-6.4,3.6c-0.3,0.1-1.4,2.5-2.5,5.3
		c-1.1,2.7-1.9,5.3-1.8,5.6c0.1,0.3,1.5,4.8,3.1,10c0,0,0,0,0.3,1.2c0,0.1,0,0.1,0,0.1c-0.1,0.1-1.2,1.4-2.6,2.9
		c-1.4,1.4-2.5,2.6-2.7,2.7c0,0,0,0-0.1,0c-1.5-0.2-1.5-0.2-1.5-0.2c-5.1-1.3-9.6-2.5-9.8-2.6c-0.2-0.1-2.7,0.8-5.5,2
		s-5.1,2.4-5.2,2.7c-0.1,0.3-1.3,2.5-2.5,4.9c-1.3,2.4-3,5.4-3.1,5.5c-0.1,0.1-1.9,0.1-3.8,0.2c-2,0-3.7,0-3.8,0c0,0,0,0-0.1-0.1
		c-0.8-1.3-0.8-1.3-0.8-1.3c-2.6-4.5-4.9-8.5-5.1-8.8c-0.2-0.5-2.6-1.6-5.4-2.7c-2.7-1.1-5.3-1.9-5.6-1.8c-0.3,0.1-4.8,1.5-10,3.1
		c0,0,0,0-1.2,0.3c-0.1,0-0.1,0-0.1,0C23.8,92.8,22.4,91.7,21,90.3z"/>
</g>
</svg>
