<?xml version="1.0" encoding="utf-8"?>
<!-- Generator: Adobe Illustrator 25.4.1, SVG Export Plug-In . SVG Version: 6.00 Build 0)  -->
<svg version="1.1" id="Layer_1" xmlns="http://www.w3.org/2000/svg" xmlns:xlink="http://www.w3.org/1999/xlink" x="0px" y="0px"
	 viewBox="0 0 24 24" style="enable-background:new 0 0 24 24;" xml:space="preserve">
<g>
	<path d="M12,24C5.3,24,0,18.7,0,12S5.3,0,12,0s12,5.3,12,12S18.7,24,12,24z M12,3c-5,0-9,4-9,9s4,9,9,9s9-4,9-9S17,3,12,3z"/>
</g>
<g>
	<path d="M8,9.9c0-0.6,0.1-1.1,0.3-1.6C8.5,7.8,8.7,7.3,9.1,7c0.3-0.4,0.8-0.6,1.2-0.8c0.5-0.2,1-0.3,1.6-0.3c0.8,0,1.4,0.1,1.9,0.3
		c0.5,0.2,0.9,0.5,1.3,0.8c0.3,0.3,0.5,0.7,0.7,1C16,8.3,16,8.7,16,9c0,0.5-0.1,1-0.2,1.3c-0.1,0.3-0.3,0.6-0.5,0.9
		c-0.2,0.2-0.4,0.4-0.7,0.6c-0.2,0.2-0.5,0.3-0.7,0.5c-0.2,0.2-0.4,0.4-0.6,0.6c-0.2,0.2-0.3,0.5-0.3,0.8v0.6h-2.2v-0.7
		c0-0.5,0.1-0.9,0.3-1.2c0.1-0.3,0.3-0.6,0.5-0.8c0.2-0.2,0.4-0.4,0.6-0.6c0.2-0.2,0.4-0.3,0.6-0.5c0.2-0.2,0.3-0.3,0.4-0.5
		s0.2-0.4,0.2-0.7c0-0.5-0.1-0.9-0.4-1.1c-0.2-0.2-0.6-0.4-1-0.4c-0.3,0-0.5,0.1-0.8,0.2c-0.2,0.1-0.4,0.3-0.5,0.5
		c-0.1,0.2-0.2,0.4-0.3,0.7c-0.1,0.3-0.1,0.5-0.1,0.8H8z M13.2,15.3v2.5h-2.6v-2.5H13.2z"/>
</g>
</svg>
