<?xml version="1.0" encoding="utf-8"?>
<!-- Generator: Adobe Illustrator 25.4.1, SVG Export Plug-In . SVG Version: 6.00 Build 0)  -->
<svg version="1.1" id="Layer_1" xmlns="http://www.w3.org/2000/svg" xmlns:xlink="http://www.w3.org/1999/xlink" x="0px" y="0px"
	 viewBox="0 0 91.7 91.7" style="enable-background:new 0 0 91.7 91.7;" xml:space="preserve">
<path d="M91.7,45.1c-7-16.3-25.4-27.2-45.8-27.2S7,28.8,0,45.1l1.8,0.8L0,46.6c7,16.3,25.4,27.2,45.8,27.2s38.9-10.9,45.8-27.2
	l-1.8-0.8L91.7,45.1z M45.8,69.8c-1.3,0-2.5,0-3.8-0.1c-11.5-1.8-20.4-11.8-20.4-23.9c0-12,8.8-22,20.4-23.9
	c1.3-0.1,2.5-0.1,3.8-0.1s2.5,0,3.8,0.1C61.2,23.8,70,33.8,70,45.8c0,12-8.8,22-20.4,23.9C48.4,69.8,47.1,69.8,45.8,69.8z M4,45.8
	C8.5,36,17.7,28.5,28.9,24.6c-6.2,5-10.2,12.6-10.2,21.2c0,8.6,4,16.2,10.2,21.2C17.7,63.2,8.5,55.6,4,45.8z M62.8,67.1
	C69,62.1,73,54.4,73,45.8c0-8.6-4-16.2-10.2-21.2C74,28.5,83.2,36,87.6,45.8C83.2,55.6,74,63.2,62.8,67.1z"/>
<path d="M60,38.6c-0.9,2.2-3.1,3.7-5.7,3.7c-3.4,0-6.2-2.8-6.2-6.2c0-2.2,1.2-4.2,3-5.3c-1.6-0.6-3.4-0.9-5.2-0.9
	c-8.8,0-15.9,7.1-15.9,15.9s7.1,15.9,15.9,15.9s15.9-7.1,15.9-15.9C61.7,43.2,61.1,40.7,60,38.6z"/>
</svg>
