<?xml version="1.0" encoding="utf-8"?>
<!-- Generator: Adobe Illustrator 25.4.1, SVG Export Plug-In . SVG Version: 6.00 Build 0)  -->
<svg version="1.1" xmlns="http://www.w3.org/2000/svg" xmlns:xlink="http://www.w3.org/1999/xlink" x="0px" y="0px"
	 viewBox="0 0 100 100" style="enable-background:new 0 0 100 100;" xml:space="preserve">
<g id="Layer_2">
</g>
<g id="Layer_1">
	<g>
		<path d="M95.7,45.8L75.6,25.7c-2.4-2.4-6.2-2.4-8.6,0s-2.4,6.2,0,8.6l9.7,9.7H26.9c-3.4,0-6.1,2.7-6.1,6.1c0,3.4,2.7,6.1,6.1,6.1
			h49.8L67,65.9c-2.4,2.4-2.4,6.2,0,8.6c1.2,1.2,2.7,1.8,4.3,1.8s3.1-0.6,4.3-1.8l20.1-20.1C98.1,52,98.1,48.2,95.7,45.8z"/>
		<path d="M51.1,80.2H14.7V19.9h36.5c3.4,0,6.1-2.7,6.1-6.1s-2.7-6.1-6.1-6.1H8.6c-3.4,0-6.1,2.7-6.1,6.1v72.5
			c0,3.4,2.7,6.1,6.1,6.1h42.6c3.4,0,6.1-2.7,6.1-6.1C57.2,83,54.5,80.2,51.1,80.2z"/>
	</g>
</g>
</svg>
