<?xml version="1.0" encoding="utf-8"?>
<!-- Generator: Adobe Illustrator 28.0.0, SVG Export Plug-In . SVG Version: 6.00 Build 0)  -->
<svg version="1.1" id="Layer_1" xmlns="http://www.w3.org/2000/svg" xmlns:xlink="http://www.w3.org/1999/xlink" x="0px" y="0px"
	 viewBox="0 0 24 24" style="enable-background:new 0 0 24 24;" xml:space="preserve">
<g>
	<path d="M12,24C5.3,24,0,18.7,0,12S5.3,0,12,0s12,5.3,12,12S18.7,24,12,24z M12,3c-5,0-9,4-9,9s4,9,9,9s9-4,9-9S17,3,12,3z"/>
</g>
<g>
	<path d="M12.3,16.4c0,0.2-0.1,0.3-0.1,0.3c0,0.1,0.1,0.2,0.2,0.2c0.1,0,0.2,0,0.3-0.1c0.1,0,0.2-0.1,0.3-0.2
		c0.1-0.1,0.2-0.1,0.3-0.2c0.1,0,0.2-0.1,0.2-0.1c0.1,0,0.2,0.1,0.2,0.2c0.1,0.1,0.1,0.2,0.1,0.3c-0.2,0.1-0.4,0.3-0.7,0.5
		c-0.3,0.2-0.6,0.3-0.8,0.5c-0.3,0.1-0.6,0.3-0.8,0.4c-0.3,0.1-0.5,0.1-0.7,0.1c-0.2,0-0.4,0-0.5-0.1C10,18.1,9.9,18,9.9,17.7
		c0-0.1,0-0.1,0-0.2c0-0.1,0-0.1,0-0.2l1.2-5.8c0-0.2,0-0.3-0.1-0.3c0,0-0.1,0-0.2,0s-0.2,0.1-0.3,0.1c-0.1,0-0.2,0.1-0.3,0.1
		c-0.1,0-0.2,0-0.2,0c-0.1,0-0.2-0.1-0.3-0.2c-0.1-0.1-0.1-0.2-0.1-0.3c0.2-0.1,0.5-0.3,0.9-0.4s0.7-0.3,1-0.5s0.6-0.2,0.9-0.3
		c0.3-0.1,0.5-0.1,0.6-0.1c0.1,0,0.2,0,0.3,0.1c0.1,0.1,0.1,0.1,0.1,0.3c0,0,0,0.1,0,0.2c0,0.1,0,0.1,0,0.2L12.3,16.4z M12.7,8.1
		c-0.3,0-0.6-0.1-0.8-0.3c-0.2-0.2-0.3-0.4-0.3-0.7c0-0.4,0.2-0.7,0.5-1c0.3-0.3,0.7-0.4,1.1-0.4c0.4,0,0.6,0.1,0.8,0.3
		c0.2,0.2,0.2,0.4,0.2,0.7c0,0.4-0.1,0.7-0.4,1C13.5,7.9,13.1,8.1,12.7,8.1z"/>
</g>
</svg>
