<?xml version="1.0" encoding="utf-8"?>
<!-- Generator: Adobe Illustrator 25.4.1, SVG Export Plug-In . SVG Version: 6.00 Build 0)  -->
<svg version="1.1" id="Layer_1" xmlns="http://www.w3.org/2000/svg" xmlns:xlink="http://www.w3.org/1999/xlink" x="0px" y="0px"
	 viewBox="0 0 24 24" style="enable-background:new 0 0 24 24;" xml:space="preserve">
<g>
	<path d="M12,23C5.9,23,1,18.1,1,12S5.9,1,12,1s11,4.9,11,11S18.1,23,12,23z M12,3c-5,0-9,4-9,9c0,5,4,9,9,9c5,0,9-4,9-9
		C21,7,17,3,12,3z"/>
</g>
<path d="M14.5,8.8l-3.6,3.6l-1.4-1.4c-0.5-0.5-1.3-0.5-1.8,0c-0.5,0.5-0.5,1.3,0,1.8l2.3,2.3c0.3,0.3,0.6,0.4,0.9,0.4
	c0.3,0,0.7-0.1,0.9-0.4l4.5-4.5c0.5-0.5,0.5-1.3,0-1.8C15.8,8.3,15,8.3,14.5,8.8z"/>
</svg>
