<?xml version="1.0" encoding="utf-8"?>
<!-- Generator: Adobe Illustrator 25.4.1, SVG Export Plug-In . SVG Version: 6.00 Build 0)  -->
<svg version="1.1" id="Layer_1" xmlns="http://www.w3.org/2000/svg" xmlns:xlink="http://www.w3.org/1999/xlink" x="0px" y="0px"
	 viewBox="0 0 24 24" style="enable-background:new 0 0 24 24;" xml:space="preserve">
<g>
	<path d="M12,23C5.9,23,1,18.1,1,12S5.9,1,12,1s11,4.9,11,11S18.1,23,12,23z M12,3c-5,0-9,4-9,9s4,9,9,9s9-4,9-9S17,3,12,3z"/>
</g>
<g>
	<path d="M8.5,15.4c-0.3,0.2-0.5,0-0.5-0.3V8.9c0-0.3,0.2-0.5,0.5-0.3l5.5,3.2c0.3,0.2,0.3,0.4,0,0.6L8.5,15.4z"/>
	<g>
		<path d="M15.4,15.4c-0.3,0-0.6-0.3-0.6-0.6V9.2c0-0.3,0.3-0.6,0.6-0.6S16,8.8,16,9.2v5.7C16,15.2,15.8,15.4,15.4,15.4z"/>
	</g>
</g>
</svg>
