<?xml version="1.0" encoding="utf-8"?>
<!-- Generator: Adobe Illustrator 25.4.1, SVG Export Plug-In . SVG Version: 6.00 Build 0)  -->
<svg version="1.1" id="Layer_1" xmlns="http://www.w3.org/2000/svg" xmlns:xlink="http://www.w3.org/1999/xlink" x="0px" y="0px"
	 viewBox="0 0 88.7 88.7" style="enable-background:new 0 0 88.7 88.7;" xml:space="preserve">
<style type="text/css">
	.st0{fill:#231F20;}
</style>
<g id="Layer_2_00000114779173958139970140000014285090992934008725_">
</g>
<g>
	<path d="M37,17.2"/>
	<path d="M82.6,31.9c-3.3,0.1-6.1,2.8-6.1,6.2v36.4H48.6H16.2h-4V14.2h36.5c3.4,0,6.1-2.7,6.1-6.1c0-3.4-2.7-6.1-6.1-6.1H6.1
		C2.7,2,0,4.7,0,8.1v72.5c0,3.4,2.7,6.1,6.1,6.1h4h38.6h33.9c3.4,0,6.1-2.7,6.1-6.1V38C88.7,34.6,86,31.9,82.6,31.9z"/>
	<g>
		<polygon class="st0" points="26.9,53.3 22,68.5 37,63.8 38.8,62 28.5,51.7 		"/>
		
			<rect x="28.2" y="26.7" transform="matrix(0.7071 -0.7071 0.7071 0.7071 -7.5174 49.9006)" class="st0" width="56.6" height="14.6"/>
		<path class="st0" d="M86.7,14.1c2.4-2.4,2-6.6-0.8-9.5c-2.9-2.9-7.1-3.2-9.5-0.8L74.2,6l10.3,10.3L86.7,14.1z"/>
	</g>
</g>
</svg>
